<?xml version="1.0" standalone="no"?><!DOCTYPE svg PUBLIC "-//W3C//DTD SVG 1.1//EN" "http://www.w3.org/Graphics/SVG/1.1/DTD/svg11.dtd"><svg t="1736239753665" class="icon" viewBox="0 0 1024 1024" version="1.1" xmlns="http://www.w3.org/2000/svg" p-id="14701" width="64" height="64" xmlns:xlink="http://www.w3.org/1999/xlink"><path d="M992 511.168a480 480 0 1 1-960 0 480 480 0 0 1 960 0z m-670.336-64a64 64 0 1 0 0 128 64 64 0 0 0 0-128z m191.808 0a64 64 0 1 0 0 128 64 64 0 0 0 0-128z m191.808 0a64 64 0 1 0 0 128 64 64 0 0 0 0-128z" fill="#1296db" p-id="14702"></path></svg>